<?xml version="1.0" encoding="UTF-8"?>
<svg width="24px" height="24px" viewBox="0 0 24 24" version="1.1" xmlns="http://www.w3.org/2000/svg" xmlns:xlink="http://www.w3.org/1999/xlink">
    <title>Light Mode/63 Gemeente Amsterdam</title>
    <g id="Light-Mode/63-Gemeente-Amsterdam" stroke="none" stroke-width="1" fill="none" fill-rule="evenodd">
        <path d="M4.1065,14.3162 L4.6338,14.84345 L3.84415,15.6331 L4.63375,16.42265 L4.1065,16.95 L3.3169,16.16035 L2.5273,16.95 L2,16.42275 L2.7896,15.6331 L2,14.84345 L2.5273,14.3162 L3.3169,15.1058 L4.1065,14.3162 Z M4.1065,11.15865 L4.6338,11.68595 L3.84415,12.47555 L4.63375,13.26515 L4.1065,13.79245 L3.3169,13.0028 L2.5273,13.79245 L2,13.2652 L2.7896,12.47555 L2,11.68595 L2.5273,11.15865 L3.3169,11.94825 L4.1065,11.15865 Z M11.29985,12.07885 C11.39635,12.07885 11.4918,12.09545 11.58635,12.1286 C11.6808,12.16175 11.7572,12.2186 11.81555,12.299 L11.57425,12.5161 C11.50385,12.41765 11.4094,12.36835 11.2908,12.36835 C11.2426,12.36835 11.1953,12.3804 11.14905,12.40455 C11.1028,12.42865 11.07975,12.46785 11.07975,12.52215 C11.07975,12.5664 11.0988,12.59855 11.137,12.61865 C11.1752,12.63875 11.22345,12.65585 11.28175,12.6699 C11.34005,12.68395 11.40285,12.69855 11.4702,12.71365 C11.53755,12.7287 11.6004,12.75185 11.6587,12.783 C11.717,12.8142 11.76525,12.8569 11.80345,12.91115 C11.8416,12.9654 11.86075,13.0398 11.86075,13.1343 C11.86075,13.2208 11.84215,13.2937 11.805,13.3529 C11.7677,13.4123 11.7195,13.46 11.6602,13.49615 C11.6009,13.5324 11.53405,13.5585 11.45965,13.5746 C11.38525,13.59065 11.3109,13.5987 11.2365,13.5987 C11.12395,13.5987 11.0204,13.5826 10.92595,13.55045 C10.8314,13.51835 10.74695,13.46 10.6726,13.37555 L10.91385,13.1494 C10.96005,13.2017 11.0098,13.2444 11.06315,13.2775 C11.11635,13.3107 11.1812,13.3273 11.2576,13.3273 C11.28375,13.3273 11.3109,13.3243 11.33905,13.31825 C11.3672,13.31225 11.3933,13.3022 11.4175,13.2881 C11.4416,13.2741 11.4612,13.2564 11.47625,13.23535 C11.49135,13.21425 11.4989,13.18965 11.4989,13.16145 C11.4989,13.1112 11.47975,13.074 11.4416,13.0499 C11.40335,13.02575 11.35515,13.00615 11.29685,12.9911 C11.23855,12.976 11.1757,12.96195 11.10835,12.94885 C11.04095,12.9358 10.97815,12.9147 10.91985,12.8855 C10.86155,12.8564 10.8133,12.8157 10.77515,12.76335 C10.7369,12.7111 10.7178,12.63875 10.7178,12.54625 C10.7178,12.4659 10.7344,12.396 10.7676,12.3367 C10.8008,12.2774 10.8445,12.22865 10.8988,12.19045 C10.9531,12.15225 11.01535,12.12405 11.08575,12.106 C11.1561,12.0879 11.2275,12.07885 11.29985,12.07885 Z M18.6759,12.07885 C18.7784,12.07885 18.8648,12.09045 18.9352,12.11355 C19.00555,12.13665 19.06385,12.1663 19.1101,12.2025 C19.15635,12.23865 19.192,12.2804 19.2172,12.32765 C19.2423,12.3749 19.2604,12.42265 19.27145,12.4709 C19.28245,12.5191 19.289,12.5659 19.29105,12.6111 C19.293,12.65635 19.2941,12.69605 19.2941,12.73025 L19.2941,13.56255 L18.96835,13.56255 L18.96835,13.3635 L18.95935,13.3635 C18.90705,13.44595 18.84065,13.50575 18.7603,13.54295 C18.6799,13.5801 18.59145,13.5987 18.4949,13.5987 C18.4286,13.5987 18.36375,13.5897 18.30045,13.57155 C18.2371,13.5535 18.1808,13.52635 18.13155,13.49015 C18.0823,13.454 18.0426,13.40875 18.01245,13.35445 C17.9823,13.30015 17.9672,13.23685 17.9672,13.1645 C17.9672,13.08605 17.98125,13.0192 18.0094,12.96395 C18.03755,12.90865 18.07525,12.86245 18.1225,12.8252 C18.16975,12.78805 18.2245,12.75835 18.28685,12.73625 C18.34915,12.71415 18.41395,12.69755 18.48135,12.6865 C18.5487,12.67545 18.61655,12.66845 18.6849,12.6654 C18.7532,12.6624 18.81765,12.66085 18.87795,12.66085 L18.96835,12.66085 L18.96835,12.62165 C18.96835,12.53125 18.9372,12.46335 18.8749,12.4181 C18.81255,12.3729 18.73315,12.35025 18.63665,12.35025 C18.56025,12.35025 18.4889,12.3638 18.42255,12.39095 C18.3562,12.4181 18.29895,12.4548 18.2507,12.50105 L18.0607,12.31105 C18.14105,12.22865 18.23505,12.1693 18.34265,12.13315 C18.4502,12.09695 18.5613,12.07885 18.6759,12.07885 Z M17.6536,11.23275 L17.6536,13.56255 L17.3098,13.56255 L17.3098,13.3454 L17.3038,13.3454 C17.2515,13.43385 17.18115,13.4982 17.0927,13.5384 C17.0042,13.5786 16.90875,13.5987 16.8062,13.5987 C16.6936,13.5987 16.5936,13.5791 16.50615,13.5399 C16.4187,13.5007 16.3438,13.44695 16.2815,13.3786 C16.2192,13.31025 16.1719,13.2298 16.1398,13.13735 C16.10755,13.0449 16.0915,12.9454 16.0915,12.83875 C16.0915,12.73225 16.1086,12.63275 16.14275,12.5402 C16.17695,12.4478 16.22465,12.36735 16.28605,12.299 C16.3473,12.23065 16.4212,12.17685 16.50765,12.13765 C16.5941,12.09845 16.6886,12.07885 16.79115,12.07885 C16.85945,12.07885 16.9198,12.0859 16.97205,12.09995 C17.0243,12.11405 17.07055,12.13215 17.1108,12.15425 C17.151,12.1764 17.18515,12.2 17.21335,12.2251 C17.24145,12.25025 17.2646,12.27485 17.28265,12.299 L17.29175,12.299 L17.29175,11.33275 L17.6536,11.23275 Z M14.0289,12.07885 C14.1294,12.07885 14.2214,12.0965 14.30485,12.1316 C14.38825,12.1668 14.4596,12.2176 14.51895,12.2839 C14.5782,12.35025 14.62445,12.4322 14.6576,12.52965 C14.6908,12.6272 14.7074,12.73925 14.7074,12.8659 L14.7074,12.9654 L13.6037,12.9654 C13.61575,13.074 13.65795,13.15845 13.7303,13.21875 C13.80275,13.2791 13.8902,13.3092 13.9927,13.3092 C14.08315,13.3092 14.15905,13.29065 14.22035,13.2534 C14.2817,13.2163 14.33545,13.1695 14.3817,13.1132 L14.64105,13.3092 C14.55665,13.41375 14.4621,13.48815 14.35755,13.5324 C14.25305,13.57655 14.14345,13.5987 14.0289,13.5987 C13.9203,13.5987 13.81775,13.58065 13.7213,13.5444 C13.6248,13.5083 13.54135,13.457 13.471,13.3906 C13.4006,13.3243 13.3448,13.2444 13.3036,13.1509 C13.2624,13.0574 13.2418,12.9534 13.2418,12.83875 C13.2418,12.7242 13.2624,12.62015 13.3036,12.52665 C13.3448,12.4332 13.4006,12.3533 13.471,12.28695 C13.54135,12.2206 13.6248,12.1693 13.7213,12.13315 C13.81775,12.09695 13.9203,12.07885 14.0289,12.07885 Z M12.63265,11.64585 L12.63265,12.11505 L13.03075,12.11505 L13.03075,12.42265 L12.63265,12.42265 L12.63265,13.05595 C12.63265,13.1283 12.64625,13.18555 12.6734,13.2278 C12.70055,13.27 12.7543,13.2911 12.8347,13.2911 C12.86685,13.2911 12.90205,13.2876 12.9403,13.28055 C12.97845,13.2735 13.0086,13.262 13.03075,13.2459 L13.03075,13.55045 C12.99255,13.56855 12.9458,13.5811 12.89055,13.58815 C12.8352,13.5952 12.78645,13.5987 12.7443,13.5987 C12.64775,13.5987 12.56885,13.58815 12.5075,13.56705 C12.4462,13.54595 12.39795,13.5138 12.3628,13.4706 C12.3276,13.4273 12.30345,13.3736 12.29045,13.3092 C12.2773,13.2449 12.2708,13.1705 12.2708,13.08605 L12.2708,12.42265 L11.97225,12.42265 L11.97225,12.11505 L12.2708,12.11505 L12.2708,11.74585 L12.63265,11.64585 Z M15.8412,12.07885 C15.86335,12.07885 15.88495,12.0809 15.90605,12.0849 C15.92715,12.08895 15.94875,12.09395 15.9709,12.09995 L15.9709,12.4498 C15.9407,12.44175 15.91105,12.4352 15.88195,12.4302 C15.8528,12.42515 15.8241,12.42265 15.796,12.42265 C15.7115,12.42265 15.6437,12.43825 15.59245,12.46935 C15.54115,12.50055 15.50195,12.5362 15.4748,12.57645 C15.4477,12.61665 15.4296,12.65685 15.42055,12.69705 C15.41145,12.7373 15.407,12.76745 15.407,12.7875 L15.407,13.56255 L15.0451,13.56255 L15.0451,12.11505 L15.407,12.11505 L15.407,12.3442 L15.413,12.3442 C15.45315,12.2598 15.5105,12.1945 15.5849,12.1482 C15.65925,12.102 15.74475,12.07885 15.8412,12.07885 Z M21.38985,12.07885 C21.4864,12.07885 21.56775,12.09495 21.63415,12.1271 C21.7005,12.1593 21.75425,12.2035 21.79545,12.2598 C21.83665,12.3161 21.8663,12.3819 21.8844,12.4573 C21.90255,12.5327 21.91155,12.61365 21.91155,12.70005 L21.91155,13.56255 L21.5497,13.56255 L21.5497,12.74225 C21.5497,12.6981 21.54565,12.65535 21.53765,12.61415 C21.5296,12.5729 21.5155,12.53675 21.4954,12.50555 C21.4753,12.4744 21.44815,12.4498 21.414,12.43165 C21.3798,12.41355 21.3356,12.40455 21.2813,12.40455 C21.225,12.40455 21.17725,12.4151 21.1381,12.4362 C21.0989,12.4573 21.0667,12.48545 21.04155,12.52065 C21.0164,12.55585 20.9983,12.596 20.9873,12.6413 C20.9762,12.6865 20.9707,12.73225 20.9707,12.7785 L20.9707,13.56255 L20.60885,13.56255 L20.60885,12.70005 C20.60885,12.6096 20.5897,12.53775 20.5515,12.48445 C20.51335,12.4312 20.45,12.40455 20.36155,12.40455 C20.3012,12.40455 20.25045,12.41465 20.2093,12.4347 C20.168,12.4548 20.1339,12.48195 20.10675,12.5161 C20.0796,12.5503 20.06,12.58955 20.04795,12.6337 C20.03585,12.67795 20.02985,12.7242 20.02985,12.77245 L20.02985,13.56255 L19.66795,13.56255 L19.66795,12.11505 L20.0117,12.11505 L20.0117,12.3412 L20.01775,12.3412 C20.0499,12.2729 20.1017,12.21205 20.1731,12.15875 C20.24445,12.1055 20.34045,12.07885 20.4611,12.07885 C20.68825,12.07885 20.839,12.16835 20.91345,12.34725 C20.96565,12.2548 21.031,12.18695 21.1094,12.1437 C21.18785,12.1005 21.2813,12.07885 21.38985,12.07885 Z M9.8855,12.07885 C9.98205,12.07885 10.06345,12.09495 10.1298,12.1271 C10.19615,12.1593 10.2499,12.2035 10.2911,12.2598 C10.3323,12.3161 10.36195,12.3819 10.3801,12.4573 C10.3982,12.5327 10.40725,12.61365 10.40725,12.70005 L10.40725,13.56255 L10.04535,13.56255 L10.04535,12.74225 C10.04535,12.6981 10.0413,12.65535 10.0333,12.61415 C10.02525,12.5729 10.01115,12.53675 9.99105,12.50555 C9.97095,12.4744 9.9438,12.4498 9.90965,12.43165 C9.87545,12.41355 9.83125,12.40455 9.77695,12.40455 C9.72065,12.40455 9.6729,12.4151 9.63375,12.4362 C9.59455,12.4573 9.56235,12.48545 9.5372,12.52065 C9.51205,12.55585 9.49395,12.596 9.48295,12.6413 C9.4719,12.6865 9.46635,12.73225 9.46635,12.7785 L9.46635,13.56255 L9.1045,13.56255 L9.1045,12.70005 C9.1045,12.6096 9.08535,12.53775 9.04715,12.48445 C9.009,12.4312 8.94565,12.40455 8.85725,12.40455 C8.7969,12.40455 8.7461,12.41465 8.70495,12.4347 C8.66365,12.4548 8.62955,12.48195 8.6024,12.5161 C8.57525,12.5503 8.55565,12.58955 8.5436,12.6337 C8.5315,12.67795 8.5255,12.7242 8.5255,12.77245 L8.5255,13.56255 L8.1636,13.56255 L8.1636,12.11505 L8.50735,12.11505 L8.50735,12.3412 L8.51345,12.3412 C8.54555,12.2729 8.59735,12.21205 8.66875,12.15875 C8.7401,12.1055 8.8361,12.07885 8.95675,12.07885 C9.1839,12.07885 9.33465,12.16835 9.4091,12.34725 C9.46135,12.2548 9.52665,12.18695 9.6051,12.1437 C9.6835,12.1005 9.77695,12.07885 9.8855,12.07885 Z M7.05395,11.4275 L7.9737,13.56255 L7.53945,13.56255 L7.34045,13.074 L6.41465,13.074 L6.22165,13.56255 L5.79645,13.56255 L6.72525,11.4275 L7.05395,11.4275 Z M18.94725,12.91415 L18.8719,12.91415 C18.82165,12.91415 18.7653,12.9162 18.70305,12.9202 C18.64065,12.92425 18.5819,12.93375 18.5266,12.94885 C18.4713,12.96395 18.42455,12.9861 18.3864,13.0152 C18.34815,13.04435 18.32905,13.08505 18.32905,13.13735 C18.32905,13.17155 18.3366,13.20015 18.3517,13.22325 C18.36675,13.2464 18.3864,13.266 18.4105,13.2821 C18.4346,13.2982 18.46175,13.30975 18.4919,13.3168 C18.52205,13.3238 18.55225,13.3273 18.58235,13.3273 C18.70705,13.3273 18.79895,13.2977 18.8583,13.23835 C18.9176,13.1791 18.94725,13.0981 18.94725,12.9956 L18.94725,12.91415 Z M16.8786,12.40455 C16.81225,12.40455 16.75295,12.4166 16.7007,12.4407 C16.6484,12.46485 16.60365,12.497 16.5665,12.53725 C16.52925,12.57745 16.5011,12.6237 16.48205,12.67595 C16.4629,12.72825 16.4534,12.7825 16.4534,12.83875 C16.4534,12.8951 16.4629,12.9494 16.48205,13.00165 C16.5011,13.05395 16.52925,13.10015 16.5665,13.1403 C16.60365,13.1806 16.6484,13.2127 16.7007,13.23685 C16.75295,13.26095 16.81225,13.27305 16.8786,13.27305 C16.9449,13.27305 17.0042,13.26095 17.0565,13.23685 C17.1088,13.2127 17.15345,13.1806 17.1907,13.1403 C17.2279,13.10015 17.256,13.05395 17.27515,13.00165 C17.29425,12.9494 17.3038,12.8951 17.3038,12.83875 C17.3038,12.7825 17.29425,12.72825 17.27515,12.67595 C17.256,12.6237 17.2279,12.57745 17.1907,12.53725 C17.15345,12.497 17.1088,12.46485 17.0565,12.4407 C17.0042,12.4166 16.9449,12.40455 16.8786,12.40455 Z M6.87905,11.8798 L6.5443,12.7483 L7.2077,12.7483 L6.87905,11.8798 Z M13.97765,12.35025 C13.86905,12.35025 13.7831,12.38145 13.7198,12.44375 C13.65645,12.5061 13.6177,12.58955 13.6037,12.694 L14.3455,12.694 C14.3435,12.5875 14.31035,12.5036 14.246,12.44225 C14.18165,12.38095 14.09225,12.35025 13.97765,12.35025 Z M4.1065,8.00115 L4.6338,8.52845 L3.84415,9.31805 L4.63375,10.10765 L4.1065,10.63495 L3.3169,9.8453 L2.5273,10.63495 L2,10.10765 L2.7896,9.31805 L2,8.52845 L2.5273,8.00115 L3.3169,8.79075 L4.1065,8.00115 Z M7.0479,8.1802 C7.21075,8.1802 7.36355,8.1998 7.5063,8.239 C7.649,8.2782 7.77665,8.3481 7.88925,8.4486 L7.6088,8.73205 C7.54045,8.6657 7.4575,8.61445 7.36,8.57825 C7.2625,8.5421 7.15945,8.52395 7.05095,8.52395 C6.94035,8.52395 6.8403,8.5436 6.7509,8.5828 C6.6614,8.622 6.5845,8.67625 6.52015,8.74565 C6.4558,8.815 6.40605,8.89595 6.3709,8.9884 C6.3357,9.0809 6.3181,9.1804 6.3181,9.28695 C6.3181,9.4015 6.3357,9.5071 6.3709,9.60355 C6.40605,9.70005 6.4558,9.78355 6.52015,9.85385 C6.5845,9.92425 6.6614,9.97955 6.7509,10.01975 C6.8403,10.05995 6.94035,10.08005 7.05095,10.08005 C7.1474,10.08005 7.2384,10.071 7.32385,10.0529 C7.4093,10.0348 7.48515,10.00665 7.5515,9.96845 L7.5515,9.46485 L7.11425,9.46485 L7.11425,9.12105 L7.9315,9.12105 L7.9315,10.2127 C7.66805,10.35345 7.3736,10.4238 7.0479,10.4238 C6.88305,10.4238 6.73175,10.39715 6.59405,10.3439 C6.45635,10.29065 6.33775,10.21525 6.23825,10.1177 C6.1387,10.02025 6.0608,9.90315 6.0045,9.7664 C5.9482,9.6297 5.92005,9.47795 5.92005,9.31105 C5.92005,9.1402 5.9482,8.9849 6.0045,8.84515 C6.0608,8.70545 6.1387,8.58635 6.23825,8.4878 C6.33775,8.38935 6.45635,8.3134 6.59405,8.26015 C6.73175,8.2069 6.88305,8.1802 7.0479,8.1802 Z M18.3864,8.4529 L18.3864,8.92205 L18.78445,8.92205 L18.78445,9.22965 L18.3864,9.22965 L18.3864,9.8629 C18.3864,9.9353 18.39995,9.9926 18.4271,10.0348 C18.45425,10.07705 18.508,10.0981 18.58845,10.0981 C18.62055,10.0981 18.65575,10.09465 18.694,10.08755 C18.7322,10.08055 18.7623,10.069 18.78445,10.0529 L18.78445,10.3575 C18.74625,10.37555 18.6995,10.3881 18.64425,10.39515 C18.5889,10.40215 18.5402,10.4057 18.498,10.4057 C18.40145,10.4057 18.32255,10.39515 18.26125,10.37405 C18.1999,10.35295 18.15165,10.3208 18.1165,10.27755 C18.0813,10.23435 18.0572,10.1806 18.04415,10.1162 C18.031,10.0519 18.0245,9.9775 18.0245,9.89305 L18.0245,9.22965 L17.726,9.22965 L17.726,8.92205 L18.0245,8.92205 L18.0245,8.5529 L18.3864,8.4529 Z M19.7826,8.88585 C19.8831,8.88585 19.9751,8.9035 20.05855,8.9386 C20.14195,8.97385 20.21335,9.0246 20.27265,9.0909 C20.33195,9.15725 20.37815,9.2392 20.41135,9.3367 C20.44455,9.43425 20.46115,9.54625 20.46115,9.6729 L20.46115,9.77245 L19.3574,9.77245 C19.3695,9.881 19.41165,9.96545 19.48405,10.02575 C19.55645,10.08605 19.6439,10.1162 19.74645,10.1162 C19.83685,10.1162 19.91275,10.09765 19.97405,10.0604 C20.0354,10.02325 20.08915,9.9765 20.1354,9.9202 L20.3948,10.1162 C20.31035,10.2208 20.2158,10.29515 20.1113,10.3394 C20.00675,10.38355 19.89715,10.4057 19.7826,10.4057 C19.674,10.4057 19.5715,10.38765 19.475,10.35145 C19.3785,10.31525 19.29505,10.264 19.2247,10.19765 C19.1543,10.1313 19.09855,10.0514 19.0573,9.9579 C19.0161,9.86445 18.9955,9.7604 18.9955,9.6458 C18.9955,9.5312 19.0161,9.42715 19.0573,9.33365 C19.09855,9.2402 19.1543,9.1603 19.2247,9.09395 C19.29505,9.0276 19.3785,8.9763 19.475,8.94015 C19.5715,8.90395 19.674,8.88585 19.7826,8.88585 Z M9.06235,8.88585 C9.16285,8.88585 9.25485,8.9035 9.3383,8.9386 C9.4217,8.97385 9.49305,9.0246 9.5524,9.0909 C9.61165,9.15725 9.6579,9.2392 9.69105,9.3367 C9.72425,9.43425 9.74085,9.54625 9.74085,9.6729 L9.74085,9.77245 L8.63715,9.77245 C8.6492,9.881 8.6914,9.96545 8.76375,10.02575 C8.8362,10.08605 8.92365,10.1162 9.02615,10.1162 C9.1166,10.1162 9.1925,10.09765 9.2538,10.0604 C9.31515,10.02325 9.3689,9.9765 9.41515,9.9202 L9.6745,10.1162 C9.5901,10.2208 9.49555,10.29515 9.391,10.3394 C9.28645,10.38355 9.1769,10.4057 9.06235,10.4057 C8.95375,10.4057 8.8512,10.38765 8.75475,10.35145 C8.65825,10.31525 8.5748,10.264 8.50445,10.19765 C8.43405,10.1313 8.37825,10.0514 8.33705,9.9579 C8.29585,9.86445 8.27525,9.7604 8.27525,9.6458 C8.27525,9.5312 8.29585,9.42715 8.33705,9.33365 C8.37825,9.2402 8.43405,9.1603 8.50445,9.09395 C8.5748,9.0276 8.65825,8.9763 8.75475,8.94015 C8.8512,8.90395 8.95375,8.88585 9.06235,8.88585 Z M15.14775,8.88585 C15.24825,8.88585 15.34025,8.9035 15.4237,8.9386 C15.5071,8.97385 15.57845,9.0246 15.6378,9.0909 C15.69705,9.15725 15.7433,9.2392 15.77645,9.3367 C15.80965,9.43425 15.82625,9.54625 15.82625,9.6729 L15.82625,9.77245 L14.72255,9.77245 C14.7346,9.881 14.7768,9.96545 14.84915,10.02575 C14.9216,10.08605 15.00905,10.1162 15.11155,10.1162 C15.202,10.1162 15.2779,10.09765 15.3392,10.0604 C15.40055,10.02325 15.4543,9.9765 15.50055,9.9202 L15.7599,10.1162 C15.6755,10.2208 15.58095,10.29515 15.4764,10.3394 C15.3719,10.38355 15.2623,10.4057 15.14775,10.4057 C15.03915,10.4057 14.9366,10.38765 14.84015,10.35145 C14.74365,10.31525 14.6602,10.264 14.58985,10.19765 C14.51945,10.1313 14.46365,10.0514 14.42245,9.9579 C14.38125,9.86445 14.36065,9.7604 14.36065,9.6458 C14.36065,9.5312 14.38125,9.42715 14.42245,9.33365 C14.46365,9.2402 14.51945,9.1603 14.58985,9.09395 C14.6602,9.0276 14.74365,8.9763 14.84015,8.94015 C14.9366,8.90395 15.03915,8.88585 15.14775,8.88585 Z M13.41685,8.88585 C13.51735,8.88585 13.60935,8.9035 13.69275,8.9386 C13.77615,8.97385 13.84755,9.0246 13.9069,9.0909 C13.96615,9.15725 14.0124,9.2392 14.04555,9.3367 C14.07875,9.43425 14.09535,9.54625 14.09535,9.6729 L14.09535,9.77245 L12.99165,9.77245 C13.0037,9.881 13.0459,9.96545 13.11825,10.02575 C13.19065,10.08605 13.27815,10.1162 13.38065,10.1162 C13.4711,10.1162 13.54695,10.09765 13.6083,10.0604 C13.66965,10.02325 13.7234,9.9765 13.76965,9.9202 L14.029,10.1162 C13.9446,10.2208 13.85005,10.29515 13.7455,10.3394 C13.64095,10.38355 13.5314,10.4057 13.41685,10.4057 C13.30825,10.4057 13.2057,10.38765 13.10925,10.35145 C13.01275,10.31525 12.9293,10.264 12.85895,10.19765 C12.78855,10.1313 12.73275,10.0514 12.69155,9.9579 C12.65035,9.86445 12.62975,9.7604 12.62975,9.6458 C12.62975,9.5312 12.65035,9.42715 12.69155,9.33365 C12.73275,9.2402 12.78855,9.1603 12.85895,9.09395 C12.9293,9.0276 13.01275,8.9763 13.10925,8.94015 C13.2057,8.90395 13.30825,8.88585 13.41685,8.88585 Z M11.78535,8.88585 C11.8819,8.88585 11.9633,8.902 12.02965,8.9341 C12.096,8.9663 12.14975,9.0105 12.19095,9.0668 C12.2322,9.1231 12.2618,9.1889 12.27995,9.2643 C12.29805,9.3397 12.3071,9.42065 12.3071,9.5071 L12.3071,10.36955 L11.9452,10.36955 L11.9452,9.5493 C11.9452,9.5051 11.94115,9.46235 11.93315,9.4211 C11.9251,9.37995 11.911,9.34375 11.8909,9.31255 C11.8708,9.2814 11.84365,9.2568 11.8095,9.23865 C11.7753,9.2206 11.7311,9.21155 11.6768,9.21155 C11.6205,9.21155 11.57275,9.2221 11.5336,9.2432 C11.4944,9.2643 11.4622,9.2925 11.43705,9.32765 C11.4119,9.36285 11.3938,9.40305 11.3828,9.44825 C11.37175,9.4935 11.3662,9.53925 11.3662,9.5855 L11.3662,10.36955 L11.00435,10.36955 L11.00435,9.5071 C11.00435,9.4166 10.9852,9.34475 10.947,9.29145 C10.90885,9.2382 10.8455,9.21155 10.7571,9.21155 C10.69675,9.21155 10.64595,9.22165 10.6048,9.2417 C10.56355,9.2618 10.5294,9.28895 10.50225,9.3231 C10.4751,9.3573 10.4555,9.39655 10.44345,9.4407 C10.43135,9.48495 10.42535,9.5312 10.42535,9.57945 L10.42535,10.36955 L10.0635,10.36955 L10.0635,8.92205 L10.40725,8.92205 L10.40725,9.1482 L10.4133,9.1482 C10.4454,9.0799 10.4972,9.01905 10.5686,8.96575 C10.63995,8.9125 10.73595,8.88585 10.8566,8.88585 C11.08375,8.88585 11.2345,8.97535 11.30895,9.15425 C11.3612,9.0618 11.4265,8.99395 11.50495,8.9507 C11.58335,8.9075 11.6768,8.88585 11.78535,8.88585 Z M16.95705,8.88585 C17.05355,8.88585 17.13545,8.902 17.20285,8.9341 C17.27015,8.9663 17.32495,9.0085 17.3672,9.06075 C17.4094,9.11305 17.43955,9.17335 17.4576,9.2417 C17.47575,9.31005 17.48475,9.38145 17.48475,9.4558 L17.48475,10.36955 L17.1229,10.36955 L17.1229,9.63675 C17.1229,9.59655 17.1209,9.55185 17.1169,9.50255 C17.11285,9.4533 17.10225,9.4071 17.0852,9.3638 C17.0681,9.32065 17.0415,9.2844 17.0053,9.25525 C16.9691,9.22615 16.9198,9.21155 16.8575,9.21155 C16.7972,9.21155 16.74645,9.22165 16.7052,9.2417 C16.664,9.2618 16.62985,9.28895 16.60275,9.3231 C16.5756,9.3573 16.55595,9.39655 16.5439,9.4407 C16.53185,9.48495 16.52585,9.5312 16.52585,9.57945 L16.52585,10.36955 L16.16395,10.36955 L16.16395,8.92205 L16.5077,8.92205 L16.5077,9.15425 L16.51375,9.15425 C16.5479,9.08185 16.6002,9.01905 16.67055,8.96575 C16.7409,8.9125 16.83645,8.88585 16.95705,8.88585 Z M9.0111,9.15725 C8.9025,9.15725 8.81655,9.18845 8.7532,9.25075 C8.6899,9.3131 8.65115,9.39655 8.63715,9.50105 L9.37895,9.50105 C9.37695,9.3945 9.3438,9.3106 9.27945,9.24925 C9.2151,9.18795 9.1257,9.15725 9.0111,9.15725 Z M13.3656,9.15725 C13.257,9.15725 13.17105,9.18845 13.1077,9.25075 C13.0444,9.3131 13.00565,9.39655 12.99165,9.50105 L13.73345,9.50105 C13.73145,9.3945 13.6983,9.3106 13.63395,9.24925 C13.5696,9.18795 13.4802,9.15725 13.3656,9.15725 Z M15.0965,9.15725 C14.9879,9.15725 14.90195,9.18845 14.8386,9.25075 C14.7753,9.3131 14.73655,9.39655 14.72255,9.50105 L15.46435,9.50105 C15.46235,9.3945 15.4292,9.3106 15.36485,9.24925 C15.3005,9.18795 15.2111,9.15725 15.0965,9.15725 Z M19.73135,9.15725 C19.62275,9.15725 19.5368,9.18845 19.4735,9.25075 C19.41015,9.3131 19.37145,9.39655 19.3574,9.50105 L20.0992,9.50105 C20.0972,9.3945 20.06405,9.3106 19.9997,9.24925 C19.93535,9.18795 19.84595,9.15725 19.73135,9.15725 Z" id="Combined-Shape" fill="#CF232A"></path>
    </g>
</svg>