<svg viewBox="0 0 144 144" xmlns="http://www.w3.org/2000/svg"><path fill="#00588E" d="M35.986-.049h71.996v144H35.986z"/><path fill="#FFF" d="M55.72 90.004l-.743.135.743.143c1.004.171 1.395.677 2.097.677.636 0 1.293-.432 1.036-1.354l-.155-.016c-.098.412-.6.649-1.138.649-.661-.005-.8-.234-1.84-.234zM48.368 91.399c.192.873-.237 1.714-1.02 1.322l-.078.057c-.004.547.71 1.167 1.55.694.11.155 1.289 1.685-.522 2.272l.016.155c1.338.559 1.987-.469 1.987-.469.677 1.542-.363 2.395-.363 2.395.147.277.787.742 1.758.959.371-.196.889-.575 1.102-1.155 0 0 .261.673.02 1.318 2.738.249 3.704-1.938 5.81-1.542l.09-.094c0-1.346-.828-3.815-3.435-4.312-2.603-.502-1.901-1.571-1.901-1.571l-5.014-.029z"/><path fill="#FFF" d="M53.382 91.428c1.102-.053 1.734.424 1.734.424l-.086-.685.163-.571c-1.236-.004-1.558-.265-1.558-.265-.188-.726.318-1.758 2.154-.653.461-.404.424-1.028.424-1.028l.224-.375c0-.306-1.465-1.122-1.844-1.224-.09-.445-.661-1.085-2.387-.853-.816.098-1.403-.114-1.13-.587l-.171-.025c-.188.188-.449.718.265 1.081.796.4.84 1.195.845 1.31l-.233.016c-.363-1.338-2.191-1.632-3.276-.918.061.718.836 1.191 1.257 1.191l.579-.579.131-.016c.18.481-.522 1.461-1.571.861-1.065 1.065-.64 2.383-.534 2.868.192.873-.237 1.714-1.02 1.322l-.078.057c-.004.547.71 1.167 1.55.694l4.562-2.045z"/><path fill="#00588E" d="M54.696 88.095c-.498.559-1.31.428-1.501-.486 1.019-.053 1.46.049 1.501.486z"/><path fill="#FFF" d="M86.44 90.233c-.534 0-1.04-.241-1.134-.649l-.155.012c-.249.922.4 1.359 1.036 1.359.702 0 1.098-.506 2.097-.677.445-.073.742-.004.742-.139l-.742-.135c-1.044 0-1.183.229-1.844.229zM90.61 91.428s.698 1.069-1.905 1.567c-2.607.502-3.431 2.966-3.431 4.312l.086.094c2.109-.392 3.076 1.795 5.81 1.542-.237-.645.024-1.318.024-1.318.216.583.734.959 1.102 1.155.971-.216 1.611-.681 1.754-.959 0 0-1.032-.857-.359-2.395 0 0 .649 1.028 1.987.473l.012-.159c-1.815-.583-.632-2.117-.522-2.272.853.477 1.567-.143 1.567-.69l-.079-.057c-.783.392-1.212-.453-1.016-1.318l-5.03.025z"/><path fill="#FFF" d="M95.167 93.468c.853.477 1.567-.143 1.567-.69l-.078-.057c-.783.392-1.212-.453-1.016-1.318.106-.486.526-1.799-.534-2.868-1.049.596-1.754-.384-1.571-.861l.131.016.579.575c.424 0 1.195-.477 1.257-1.191-1.085-.714-2.913-.424-3.28.914l-.237-.016c.008-.114.053-.906.845-1.31.714-.363.453-.889.265-1.081l-.175.016c.273.477-.314.694-1.13.583-1.726-.233-2.289.412-2.387.853-.379.098-1.844.918-1.844 1.224l.224.371s-.037.624.424 1.032c1.836-1.11 2.342-.069 2.154.665 0 0-.322.265-1.563.265l.159.575-.078.685s.632-.481 1.73-.424l4.558 2.042z"/><path fill="#00588E" d="M90.81 87.609c-.196.914-1.008 1.044-1.501.486.036-.437.481-.539 1.501-.486z"/><path fill="#FFF" d="M71.521 72.241l.18.551.057.428-.432-.057-.543-.175c-.392 0-.587.261-.587.481 0 .22.196.481.587.481l.543-.18.432-.057c.073.078-.037.869-.126 1.489-.653.139-.967.665-.967.963 0 .787.84 1.24 1.334 1.501.49-.261 1.334-.718 1.334-1.501 0-.306-.314-.828-.967-.963-.09-.624-.204-1.416-.126-1.489l.428.057.543.18c.396 0 .592-.261.592-.481 0-.216-.196-.481-.592-.481l-.543.175-.428.057.057-.428.175-.551c0-.392-.261-.592-.481-.592-.222 0-.47.196-.47.592zM71.998 78.083a.955.955 0 00-.959.959.96.96 0 00.959.959.958.958 0 100-1.918zM68.073 83.799c0 .694-.477.816-.791.816l-.596-.2.106-.506c0-.534-.363-.963-.775-.963l-.636.363c-.698-.775-1.293-1.779-1.293-2.68 0-.465.216-.583.359-.583.339 0 .347.457.8.457l.551-.661-.188-.045c-.738 0-.6-.563-1.473-.563-.294 0-1.281.159-1.281 1.554 0 2.122 2.615 2.766 2.011 4.394 1.114-.159 1.102.918 1.118 2.86.012-.008 2.179-.738 6.014-.738l-3.926-3.505z"/><path fill="#FFF" d="M71.998 87.303l1.579-3.272c-.836 0-1.204-.473-1.204-.987 0-.555 1.016-.759 1.016-1.632 0-.587-.383-.922-.755-.922-.396 0-.6.265-.641.265-.041 0-.245-.265-.645-.265-.371 0-.755.335-.755.922 0 .873 1.016 1.073 1.016 1.632 0 .514-.371.987-1.203.987-.424 0-.734-.318-1.036-.706.257-.241.404-.604.404-.983 0-.596-.371-1.102-.889-1.102l-.608.269c-.432-.942-.734-1.926-.734-2.538 0-.783.33-.91.551-.91.592 0 .779 1.155 1.444 1.155.624 0 .832-.702.832-.783l-.094-.061c-1.208 0-.946-1.273-2.342-1.273-1.297 0-1.922.926-1.922 1.86 0 1.95 2.06 3.305 2.06 4.839 0 .694-.477.816-.791.816l4.717 2.689z"/><path fill="#FFF" d="M71.998 87.303c3.839 0 6.005.734 6.005.734.02-1.938.012-3.023 1.118-2.86-.604-1.632 2.011-2.272 2.011-4.394 0-1.395-.991-1.554-1.281-1.554-.869 0-.734.563-1.473.563l-.188.045.551.661c.453 0 .465-.457.796-.457.151 0 .359.118.359.583 0 .902-.592 1.905-1.293 2.68l-.64-.363c-.412 0-.775.433-.775.963l.106.506-.596.2c-.318 0-.792-.126-.792-.816l-3.908 3.509z"/><path fill="#FFF" d="M76.698 84.611c-.318 0-.792-.126-.792-.816 0-1.542 2.06-2.893 2.06-4.839 0-.93-.62-1.86-1.922-1.86-1.395 0-1.13 1.273-2.342 1.273l-.098.065c0 .078.208.783.832.783.673 0 .857-1.155 1.448-1.155.22 0 .551.135.551.91 0 .608-.302 1.595-.734 2.538l-.608-.269c-.518 0-.889.502-.889 1.102 0 .375.151.738.404.983-.302.388-.612.706-1.032.706-.836 0-1.204-.473-1.204-.987l-.375 4.259 4.701-2.693zM47.226 114.107c.294-4.733 4.459-3.052 5.034-5.353l.094-.033c.159.559 1.567.637 1.832-.465l-.045-.065c-1.203 1.208-3.921-2.558-.216-5.618 3.166-2.607 6.001-1.155 7.074-.298.057.375-.167.502-.31.547l.012.094.922-.204c.681.473.098 1.073-.175 1.236l.02.106c.624.11 1.134-.526 1.163-.893l.106.057.482.016v-2.321s-.006-.006-.474 0l-.359.069c-.159.029-1.46-1.077-2.954-2.109-1.489-1.028-2.289-.412-3.99.502-2.223 1.208-4.471.114-4.471.114-1.917 1.371-2.574 5.328-2.574 5.328l-.282 1.783c-.09 2.525-2.986 3.39-3.076 1.579l-.114.012c-.371.898-.22 1.677.902 1.93l-.033.106c-1.118.714-.506 3.505-.453 4.325l1.885-.445z"/><path fill="#FFF" d="M45.793 110.228c-1.118.714-.506 3.505-.453 4.325.082 1.183-1.093 1.04-1.191 1.008l-.02.098c.836 1.02 1.864.09 1.864.09.779.245.294.906-.224 1.253l.016.114c.114.008 1.322.11 1.538-.849.534.637 1.322.404 1.481.322.233-.118 1.359-.526 1.473.738l.094-.016c.853-1.073-.057-1.734-.571-1.811.041-.057.726-.624 1.338.159l.086-.045c.073-1.359-1.032-1.485-1.754-.893-.033-.139-.269-.902.808-.877l.024-.094c-.836-.898-1.53-.09-1.685.106-.375.441-1.31.265-1.391.253.294-4.733 4.459-3.052 5.034-5.353l-6.467 1.472zM48.612 106.647l.071-1.844-.287.014a4.425 4.425 0 01-1.616.339c-1.461 0-1.734-.889-1.734-1.416 0-2.26 2.827-3.231 2.827-5.459 0-.539-.249-2.738-2.97-2.738l-2.432-.004c-1.016 0-1.273-.734-1.416-1.012l-.114.041-.118 1.036c0 .902.53 1.444 1.522 1.444.453 0 .877-.127 1.012-.208l.098.086c-.432.502-.465 1.44-.29 1.673l.106-.004c.241-.959 1.13-1.86 2.342-1.86 1.477 0 1.469 1.256 1.469 1.558 0 1.811-3.182 3.141-3.182 5.634 0 2.529 2.668 3.072 4.214 2.672l.498.048zM98.631 114.548c.053-.82.661-3.611-.461-4.321l-.033-.106c1.126-.253 1.273-1.036.906-1.93l-.114-.012c-.09 1.811-2.986.951-3.076-1.579l-.265-1.791s-.653-3.957-2.574-5.328c0 0-2.248 1.093-4.471-.114-1.701-.918-2.497-1.538-3.99-.502-1.489 1.032-2.791 2.138-2.954 2.109l-.359-.069-.508-.008v2.363l.516-.042.106-.057c.024.371.539 1.008 1.163.893l.016-.106c-.269-.163-.857-.763-.175-1.236l.922.204.012-.094c-.143-.045-.371-.167-.31-.547 1.077-.861 3.912-2.313 7.074.298 3.704 3.06.991 6.821-.216 5.618l-.045.073c.261 1.106 1.673 1.024 1.832.465l.094.033c.571 2.293 4.733.62 5.03 5.353l1.88.433z"/><path fill="#FFF" d="M91.72 108.763c.571 2.293 4.733.62 5.03 5.353-.086.012-1.016.188-1.391-.257-.159-.196-.849-1.004-1.693-.114l.024.094c1.081-.028.84.738.808.877-.714-.591-1.82-.469-1.754.893l.09.045c.616-.787 1.297-.22 1.338-.159-.506.077-1.42.738-.571 1.811l.098.016c.114-1.269 1.24-.857 1.473-.738.163.086.951.318 1.481-.322.216.959 1.42.857 1.538.849l.012-.114c-.518-.347-1.004-1.012-.22-1.252 0 0 1.028.93 1.86-.09l-.02-.098c-.098.037-1.273.175-1.191-1.008.053-.82.661-3.611-.461-4.321l-6.451-1.465zM95.852 106.601c1.542.4 4.214-.143 4.214-2.672 0-2.493-3.182-3.819-3.182-5.634 0-.302-.012-1.558 1.465-1.558 1.208 0 2.101.902 2.342 1.86l.106.004c.175-.228.143-1.171-.286-1.673l.094-.086c.139.077.563.208 1.012.208.991 0 1.522-.543 1.522-1.444l-.102-1.045-.118-.041c-.147.277-.4 1.012-1.416 1.012l-2.432.004c-2.717 0-2.966 2.195-2.966 2.737 0 2.228 2.827 3.194 2.827 5.459 0 .526-.265 1.416-1.734 1.416-.6 0-1.232-.171-1.612-.339l-.578.03.277 1.879.567-.117zM64.964 90.167a25.531 25.531 0 00-2.13.551l-.09 1.293v8.902l-.008 2.305v2.689c0 3.827 4.414 4.357 9.257 7.605 4.843-3.243 9.253-3.774 9.253-7.605v-2.689l-.008-2.313v-8.906l-.094-1.293c-.889-.269-4.679-1.334-9.167-1.334-2.179 0-4.19.253-5.785.538v3.084h-1.236v-2.84l.008.013"/><path fill="#FFF" d="M81.239 91.999c.694-.069.738.547.71.71-.041.208-.265.367.208 1.073l.094-.033.355-.481c.232 0 1.293.796 2.191 1.701 0 0 .522-1.567 1.762-2.052-.706-.106-3.758-.849-3.758-2.183 0-.445-.502-.551-.832-.522-.016-.041-.514-1.224-1.444-.608l.016.118c.412.094.588.522.604.983a25.379 25.379 0 00-1.344-.363l1.438 1.657zM64.964 90.167a25.531 25.531 0 00-2.13.551c.016-.461.192-.889.604-.983l.016-.118c-.93-.616-1.432.571-1.44.608-.33-.029-.828.073-.828.522 0 1.334-3.056 2.073-3.762 2.183 1.244.481 1.762 2.052 1.762 2.052.902-.902 1.966-1.701 2.195-1.701l.351.481.098.033c.473-.706.245-.865.208-1.073-.033-.163.016-.787.706-.71l2.22-1.845zM56.678 121.773c-.33-.135-.551-.347-.551-.783v-1.913c-.551-.196-2.048-.767-5.047-.767-2.489 0-3.264.563-3.301.759l-.665 3.651s1.008-.918 4.618-.685c4.345.273 8.849 2.84 8.849.106v-1.603c-3.409-.005-3.903 1.076-3.903 1.235zM83.417 120.533v1.603c0 2.734 4.504.167 8.849-.106 3.611-.241 4.618.685 4.618.685l-.661-3.651c-.037-.196-.816-.759-3.305-.759-2.99 0-4.496.575-5.047.767v1.913c0 .437-.22.653-.551.783.002-.154-.492-1.235-3.903-1.235z"/><path fill="#FFF" d="M71.998 118.873c6.997 0 14.104.367 15.038 1.42l.106-.061v-3.712c0-1.081-7.331-1.71-15.144-1.71s-15.144.632-15.144 1.71v3.712l.106.061c.934-1.053 8.041-1.42 15.038-1.42z"/><path fill="#00588E" d="M77.077 105.54c.363.159.428.898.534 1.33.159.653.853.29.889.273l.037.041c-.265.685-.963.424-.963.424l.408.588.012.061c-.249.09-.771.253-1.02-.188-.188.453-.579.445-.726.445-.265 0-.445.269-.379.636l-.049.033c-.636-.424-.269-.922-.012-1.044a.46.46 0 00-.673.302l-.053.004c-.277-.743.33-.959.767-.775-.033-.106-.261-.465-.836-.351l-.029-.041c.094-.228.379-.567.902-.22l.771-.098c-.93-1.852-2.742-.302-3.146-1.754l3.566.334z"/><path fill="#00588E" d="M75.066 103.398c.053 1.395 2.13 2.223 2.179 1.224l.061.004c.306.424.167.751-.228.914.363.159.428.898.534 1.33l-.955.09c-.93-1.852-2.742-.302-3.146-1.754l-.065.02c-.098.31-.889.33-1.028-.278l.037-.024c.114.118.363.22.69-.249l.249-1.012c0-1.126-1.126-3.023-2.88-3.023-1.114 0-2.301.433-3.186 1.077l-.53-.767c1.057-.249 2.374-2.056 3.382-2.056 1.204 0 1.64 1.408 3.864.693.563.828.755 1.546.971 2.546l.051 1.265z"/><path fill="#00588E" d="M74.674 103.441l-.088-1.294.427-.013c.861.808 2.06.538 2.06-.314 0-1.151-1.253-1.371-1.253-2.574 0-.534.371-1.306 1.399-1.306l1.795.233c.543 0 .657-.392.718-.555l.184.012.061.526c0 .759-1.106.857-1.236.763l-.057.053-.069.877-.061-.004c-.114-.543-.755-1.22-1.318-1.22-.208 0-.616.118-.616.596 0 .685 1.367 1.306 1.367 2.721 0 1.469-1.456 1.824-2.921 1.456l-.392.043zM70.513 100.64c-1.114 0-2.301.433-3.186 1.077l.824.196a1.276 1.276 0 01-1.616 1.118l.126-.955-.624.4-.049-.012c-.151-.539.298-.808.432-.881l-.012-.02c-.404-.016-.628.277-.694.38h-.025l.065-.555-.706-.184-.057.09-.82-.363.734-.004.041-.077-.628-.612.812.298.049-.053-.543-.796.796.534.057-.045-.375-.93.726.69.061-.037-.2-.938.534.779.073-.025.016-.849.339.779.094-.012.269-.657.033.885-.118.024-.147 1.065c1.057-.249 2.374-2.056 3.382-2.056l.337 1.746zM68.208 107.825c-.318.383-.592.016-1.012.016-.392 0-.457.326-.465.457l-.033.012c-.441-.604.053-.93.339-.979-.045-.045-.477-.335-.755.065l-.045-.016c-.012-.747.583-.8.971-.473l-.428-.486-.029-.041.388-.208c.42 0 .473.522.743.522.408 0 .987-.551 1.04-.608-.012-.033-.4-1.085-.322-1.722l-.029-.016c-.196.11-.694.106-.694-.51l.041-.012.755-.241c.192-.216 1.22-1.709 2.591-1.709l1.008.383c-.477.575-.004 1.122.347 1.057l.012.045c-1.811.681-2.619.955-2.619 2.472 0 .796.269 1.232.734 1.13l.02.033-.522.265c-.371 0-.445-.204-.645-.204l-.885.726.318.453-.008.024c-.155.026-.694.066-.816-.435zM70.888 94.476a2.44 2.44 0 01.889-.037l-.012.127c-.836.106-.877.49-1.403.49-.355 0-.734-.355-.587-.873l.09-.008c.044.227.366.472 1.023.301z"/><path fill="#FFF" d="M60.942 110.807c-.367.486-1.673-.424-2.195-.971 0 0 1.155-1.212 1.155-2.317l-.008-.196.049-.028.428.11c.265 0 .763-.086.763-1.02l-.061-.025-.404.245c-.93 0-2.876-3.113-5.173-3.113-.596 0-1.734.433-2.309 1.053l.302.747c-.045.396-.359.592-.677.681v.078c1.163.441 3.268 1.24 3.745 1.652.571.485.461 1.416.131 2.693-.318 1.224-1 1.061-1.244 1.016l-.024.049c.298.375.665.502.975.502.604 0 .828-.371 1.138-.371.526 0 1.624.751 1.624 1.326l1.785-2.111z"/><path fill="#FFF" d="M57.531 111.59c.526 0 1.624.751 1.624 1.326l-.575.82.016.049c.233.025 1.265.11 1.461-.808.555.706 1.085.041 1.811.041.355 0 .787.118.869.828h.069c.792-1.077-.11-1.689-.628-1.762.11-.102.885-.579 1.371.126l.086-.025c0-1.367-1.024-1.461-1.771-.873-.135-.526.265-.881.779-.881l.053-.078c-.914-.979-1.599.257-1.754.453-.367.486-1.673-.424-2.195-.971l-1.216 1.755zM86.485 111.574c.31 0 .539.371 1.138.371.31 0 .677-.127.975-.502l-.024-.045c-.249.041-.93.208-1.244-1.02-.326-1.277-.441-2.203.131-2.697.481-.412 2.587-1.212 3.745-1.652v-.082c-.318-.09-.632-.282-.677-.677l.302-.747c-.575-.62-1.709-1.053-2.309-1.053-2.297 0-4.243 3.113-5.173 3.113l-.404-.241-.061.025c0 .938.498 1.02.763 1.02l.428-.11.045.029-.008.196c0 1.11 1.155 2.313 1.155 2.313l1.218 1.759z"/><path fill="#FFF" d="M85.265 109.816c-.522.547-1.832 1.461-2.191.971-.155-.196-.84-1.432-1.754-.449l.053.078c.514 0 .918.351.779.881-.743-.592-1.762-.494-1.762.869l.077.025c.486-.698 1.261-.228 1.375-.126-.518.077-1.42.694-.628 1.767h.065c.082-.71.514-.832.865-.832.726 0 1.257.669 1.811-.041.188.938 1.216.853 1.465.808l.016-.045-.575-.82c0-.575 1.102-1.326 1.624-1.326.31 0 .539.371 1.138.371.31 0 .677-.127.975-.502l-.024-.045c-.249.041-.93.208-1.244-1.02l-2.065-.564z"/><path fill="#00588E" d="M66.845 95.826l-.408-.049-.016.016.636.522.449-.196s1.35.441 2.019.624c-.261.343-.42.759-.457 1.216-.539-.33-2.697-1.489-2.697-1.489l-.665.914-.534-.392.506-.698-.69-.037-.016-.033c.065-.139.318-.563.955-.371 0-.383-.575-.265-.726-.22l-.008-.024c.159-.167.624-.547 1.15-.237l.228-.318-.461-.477.29-.4.322.441 2.493-3.411.738-.269-.016.787-2.448 3.439.514.167-.282.4-.612-.282-.264.377zM75.576 95.267c0 .314.196.771.608.636l.037.016c-.061.351-.685.665-.967.257-.257.526-.196 1.024.351 1.326v.082a.711.711 0 01-1.065-.269c-.445.339-.379 1.053-.11 1.297 0 0-1.236.734-2.362.208-.743-.359-1.346-.812-2.309-.738.135-1.346.808-1.701 2.04-1.893.991-.159 1.114-.612.975-.959l-.951.22.053-.375-.094-.322c.694 0 .808-.155.808-.155.131-.71-.604-.792-1.163-.4l-.22-.534-.126-.212 1.032-.685c.053-.241.355-.571 1.224-.494l-.167-1.297.094-.057.808.918 1.024-.485.184 1.118 1.216.147.004.106-1.167.596c.455.675.243 1.675.243 1.948z"/><path fill="#FFF" d="M72.977 93.076c-.567-.033-.93.094-.91.273.27.286.641.258.91-.273z"/><path fill="#00588E" d="M72.002 107.82h1.252v3.472h-1.252zM77.644 92.517h1.253v3.472h-1.253z"/></svg>
