<svg viewBox="0 0 48 48" xmlns="http://www.w3.org/2000/svg"><path d="M0 24a24 24 0 1148 0 24 24 0 11-48 0" fill="#0000a4"/><path d="M2.73 14.42h5.08v4.18a8.74 8.74 0 013-.55 6.88 6.88 0 015 1.95 6.8 6.8 0 012 5 7 7 0 01-1.6 4.43 6.25 6.25 0 01-5.2 2.2H2.73z" fill="#fff"/><path d="M7.81 27.23a10.47 10.47 0 001.76.18 3.44 3.44 0 002.3-.71 2.25 2.25 0 00.87-1.84 2.4 2.4 0 00-.8-1.88 3.58 3.58 0 00-2.21-.7 6.91 6.91 0 00-1.92.31v4.64z" fill="#0000a4"/><path d="M18.51 25a6.74 6.74 0 011.87-4.76q1.86-2.1 5.91-2.15c2.79.05 4.8.8 6 2.24A6.86 6.86 0 0134.06 25a6.68 6.68 0 01-1.88 4.75q-1.91 2.1-5.84 2.15-4.15-.08-6-2.25A6.81 6.81 0 0118.51 25z" fill="#fff"/><path d="M23.6 25a2.43 2.43 0 00.75 1.85 2.59 2.59 0 001.93.73 2.6 2.6 0 001.95-.73 2.71 2.71 0 000-3.72 3 3 0 00-3.88 0A2.44 2.44 0 0023.6 25z" fill="#0000a4"/><path d="M34.7 14.42h5.08v17.22H34.7zM43.73 25.67a3 3 0 012.13.88 3.12 3.12 0 01.86 2.21 3.08 3.08 0 01-.86 2.17 2.89 2.89 0 01-2.13.93 2.82 2.82 0 01-2.1-.93 2.87 2.87 0 01-.9-2.17 3 3 0 013-3.09z" fill="#fff"/></svg>
