<svg width="207" height="207" viewBox="0 0 207 207" fill="none" xmlns="http://www.w3.org/2000/svg">
<rect width="207" height="207" rx="13" fill="#FFF48D"/>
<path d="M12 34.8711V171.27C12 177.798 17.3676 183.141 23.9279 183.141H105.813C167.72 183.141 194.557 148.655 194.557 102.892C194.557 57.3667 167.72 23 105.813 23H23.9279C17.3676 23 12 28.342 12 34.8711Z" fill="white"/>
<path d="M66.809 56.4757V157.261H110.883C150.901 157.261 168.257 134.765 168.257 102.951C168.257 72.5016 150.901 48.8782 110.883 48.8782H74.4429C70.2084 48.8782 66.809 52.3208 66.809 56.4757Z" fill="#CC0066"/>
<path fill-rule="evenodd" clip-rule="evenodd" d="M34.6025 172.279H105.812C155.85 172.279 183.463 147.646 183.463 102.951C183.463 77.1914 173.384 33.9214 105.812 33.9214H34.6025C28.2807 33.9214 23.1517 39.0259 23.1517 45.3176V160.883C23.1517 167.175 28.2807 172.279 34.6025 172.279ZM26.9658 45.3177C26.9658 41.1034 30.3653 37.7202 34.5997 37.7202H105.809C133.363 37.7202 179.644 46.208 179.644 102.951C179.644 145.213 153.402 168.48 105.809 168.48H34.5997C30.3653 168.48 26.9658 165.096 26.9658 160.883V45.3177Z" fill="#232323"/>
<path fill-rule="evenodd" clip-rule="evenodd" d="M88.497 88.3046C87.1554 87.825 85.7555 87.5851 84.2384 87.5851V87.5251H74.1461V111.869H84.3557C86.1639 111.869 87.7393 111.51 89.0809 110.91C90.4226 110.251 91.5313 109.411 92.4063 108.331C93.2813 107.253 93.9226 105.933 94.3892 104.434C94.7976 102.935 95.0313 101.316 95.0313 99.5175C95.0313 97.4787 94.7394 95.7397 94.2146 94.2407C93.6315 92.8014 92.8729 91.5424 91.9397 90.5233C90.9474 89.5638 89.8395 88.7843 88.497 88.3046ZM86.1026 107.073C85.344 107.313 84.6437 107.433 83.8859 107.433V107.493H79.2769V92.1428H83.0109C84.2943 92.1428 85.344 92.323 86.219 92.6826C87.094 93.0422 87.7944 93.6418 88.3192 94.302C88.8441 94.9614 89.2525 95.8609 89.4862 96.8201C89.7199 97.7793 89.8363 98.9187 89.8363 100.118C89.8363 101.497 89.6609 102.576 89.3115 103.535C88.9613 104.495 88.4947 105.215 87.969 105.814C87.4442 106.414 86.8029 106.833 86.1026 107.073Z" fill="white"/>
<path d="M116.092 87.5851V92.0822H103.607V97.2985H115.1V101.436H103.607V107.372H116.383V111.869H98.4149V87.5251H116.092V87.5851Z" fill="white"/>
<path fill-rule="evenodd" clip-rule="evenodd" d="M142.809 111.928L133.942 87.5845H128.516L119.591 111.928H124.841L126.708 106.532H135.576L137.384 111.928H142.809ZM131.259 93.5813L134.234 102.515H128.109L131.201 93.5813H131.259Z" fill="white"/>
<path d="M151.269 87.5845V107.431H162.821V111.928H146.077V87.5845H151.269Z" fill="white"/>
<path d="M46.3303 112.287C52.6503 112.287 57.7737 107.162 57.7737 100.84C57.7737 94.5181 52.6503 89.3931 46.3303 89.3931C40.0103 89.3931 34.8869 94.5181 34.8869 100.84C34.8869 107.162 40.0103 112.287 46.3303 112.287Z" fill="#232323"/>
<path d="M53.1398 158.076C44.2833 158.076 37.1755 150.425 37.1755 141.026V127.712C37.1755 123.012 40.7294 119.156 45.1859 119.156C49.586 119.156 53.1963 122.952 53.1963 127.712V158.076H53.1398Z" fill="#232323"/>
</svg>
