<svg viewBox="0 0 48 48" xmlns="http://www.w3.org/2000/svg"><path d="M38.4 48H9.6A9.6 9.6 0 010 38.4V9.6A9.6 9.6 0 019.6 0h28.8A9.6 9.6 0 0148 9.6v28.8a9.6 9.6 0 01-9.6 9.6z" fill="#ff6200"/><path d="M17.94 47.57a3.12 3.12 0 01-.53.43h-.76a14.4 14.4 0 00-1.25-2.77 21 21 0 013.71-1.18 4.7 4.7 0 00.79 1.37 20.84 20.84 0 00-2 2.15zM19.5 22.74c0-1.18.4-1.18.2-1.57s-1.76 0-2.15 0c-1 .19-2.74.78-2.74 1.17a9.81 9.81 0 00-.19 2.15c.19.59.19 1.17.39 1.76a4.08 4.08 0 011.17-1c.2-.19 2.35-1.76 2.54-1.95.39-.4.59-.2.78-.59zM13.83 33.5v1c0 .39.19 2.54.19 3.13.2.59.2 1.17.4 1.76a2.88 2.88 0 01.39 1.18 1.52 1.52 0 00.59-.57 6.71 6.71 0 001.17-2c-.2-1.36-.59-2.54-.59-2.93a10.77 10.77 0 01.39-2.93c-.78.38-1.75 1-2.54 1.36zM32.81 5.32a4.36 4.36 0 00-.79-.2c-.58-.39-1-.39-1.56-.78-.78 2.35-1 2.93-1 2.54a22.87 22.87 0 01-3.72-2.94c-2.54.39-2.54.78-4.69 1.57a19.22 19.22 0 00-2.74 2.94c-.39.78-.78 1.16-1.17 2l1.95.78a17.53 17.53 0 001.37-1.95A29 29 0 0025 6.29a21.3 21.3 0 003.53 2.35 12.78 12.78 0 002.34 1.17A7.73 7.73 0 0032 7.28a7.71 7.71 0 002 .59z" fill="#fff"/><path d="M32 7.28a7.71 7.71 0 002 .59 9.34 9.34 0 00.2 2.35c0 .39.38.2 1.17-.2 1.17-.39 2.34-.58 2.93-.78 1.38-.78 2.16-2.35 3.33-2.35a6.57 6.57 0 013.13 1 4.77 4.77 0 001.56.39 2.37 2.37 0 001.46-.78 6.74 6.74 0 00-.24-.88A30.06 30.06 0 0042.59 4c-1.17 1-2 1.76-2.55 1.76s-.19-1.17-.19-2a4.48 4.48 0 01-1.57-.19c-.38 1.36-.59 3.13-1.56 3.52a1.44 1.44 0 01-.78.2V5.71c0-.2.78-1.57.58-1.76a19.79 19.79 0 00-2.15.58 5.74 5.74 0 01-1.56.79 4.36 4.36 0 00-.79-.2zM23 40.14c-.2-.39-.79-.59-1.18-.78-.39 0-.78.78-.78 1.56a11.65 11.65 0 00.39 2.35c0 .19.39.39.78.58.59.39 1.18.6 1.76 1 0 0-.58-1.76-.78-2.74-.19-.59.2-1.37-.19-2zM15.59 44.25s.59-.4.59-.79a25 25 0 012.34-2.34 3.86 3.86 0 00-1.17-1.76c-.19.19-1.17.78-1.37 1.17a4.1 4.1 0 00-1 .59c0 .39.19.58.39 1 0 .39.19 1.36.19 2.15zM19.31 25.66c-2 .59-3.33 1-3.72 1.37-1 .59-1.37 1-2.35 1.56a3.82 3.82 0 00.2 1.77l.2 2.35c.38-.59 1.56-1.77 2.15-2.54a9.88 9.88 0 013.13-2.35 8.62 8.62 0 00.39-2.16zM16.57 12.36a2.9 2.9 0 00-.39 1.76 16.92 16.92 0 00.39 2.93 11.25 11.25 0 01-2 1.37c.2 1.18.4 3.33.4 3.33a4.19 4.19 0 01.78-1c.78-.59 1.17-1 2.15-1.76.2-.39.39-.2 1-.59.19-.2.39-.39.39-.58a2.84 2.84 0 00-.39-1.18 8.37 8.37 0 01-.59-1.57 16.89 16.89 0 01.39-3.32c-.78-.19-1.76-.19-2.15.59zM36.33 44.05c-.78.19-2.35.4-2.35 1a4.27 4.27 0 000 1.56 2.88 2.88 0 01.2 1.37h1.48a5.55 5.55 0 00.87-1.41 6.2 6.2 0 00-.2-2.54zM28.9 36.62a9.63 9.63 0 00.78 2.14c.2 0 .39.4.59.4A3.92 3.92 0 0131.64 38v.78a4.19 4.19 0 00.2 1.57c0 .59.58.59 1.36.59s1-1.37 1-1.56a2.39 2.39 0 001.37 1.36s1.37 0 1.37-.19c.2-1 .39-1.17.2-2a8.92 8.92 0 011.76 1.57 3.41 3.41 0 00.78-1.38 5.76 5.76 0 00.39-2.54 10.35 10.35 0 00-5.48-1.17 9.33 9.33 0 00-5.68 1.57zM32.22 45.42a1.08 1.08 0 00-1-.59c-.39 0-1.37-.59-1.37-.19-1 0-.2 1-.2 1.56a4.11 4.11 0 001.1 1.8h1.81a3.31 3.31 0 01-.16-.82c-.2-.59 0-1.17-.2-1.76zM42.59 29.77c-.39.19 0 .39 0 .59A14.33 14.33 0 0148 31.59v1.31a36 36 0 00-5.21-1.37v1.57c.78.19 1.17.58 2 .78.29.14 2 1 3.26 1.75V37a46.3 46.3 0 00-6-2.92c-.39.39-.58 1-1.17 1.37-.2.2-1.57-1-2.35-1.37a9.82 9.82 0 00-2.54-.78c-.19 0-.19-.39-.19-.58-.2-.59-.4-1.18-.2-1.38a2 2 0 001.37-1.75c0-.59.58.19 1.17 0 .39-.4.59-.79.39-1.18z" fill="#fff"/><path d="M38.09 29.58c.39-.4.59-.79.39-1.18 0-.39-.19-.78-.58-.78a8.07 8.07 0 00-6.07 0l2.93-13.11c1.37-1.17 3.72-1.37 4.9-1.37a3.09 3.09 0 012.73-3.32 3.94 3.94 0 012.94.19 8.7 8.7 0 012.34 2.74c.4.78.2 1.76.2 2.94a6.3 6.3 0 00-.2 1.56 2.74 2.74 0 01-1.76 1.56 17.08 17.08 0 01-.58 3.33 5.81 5.81 0 01-.39 1.76c.58-.2.78-.58 1.36-.58-.39 2.54-1 2.14-1.56 3.32A6.74 6.74 0 0143.57 29a6.71 6.71 0 01-1 .78c-.39.19 0 .39 0 .59zM31.83 27.62c-.59.19-.59 1-.39 1.56.19.78 1 .4 1.56 0 .19 0-.19.59.19 1.18.4.78 1.18 1 1.18 1.17a1.5 1.5 0 01-.19 1c0 .39 0 .78-.39 1a21.73 21.73 0 00-3.33 1c-.59.19-1.17.78-1.76.78-.39 0-.79-.78-1-1-.39 0-.39-.19-1.17 0a53.6 53.6 0 00-6.63 3.29c-.4-.39-.2-1-.4-1.37a44.3 44.3 0 016.85-3.52c.2-.2 0-.78-.19-1.18a10.15 10.15 0 00-3.92.59 36.46 36.46 0 00-3.53 1.37 4.82 4.82 0 01-.19-1.37 30.48 30.48 0 013.72-1.57 30.59 30.59 0 014.11-.55c-.2 0-.2-.38-.2-.58z" fill="#fff"/><path d="M26.35 30c-.2 0-.2-.38-.2-.58a12.66 12.66 0 00-2.54-3.13 7.41 7.41 0 01-.78-2.15c.39-.4.78.19 1.37.19a6.86 6.86 0 01-.39-2.15 4.74 4.74 0 01-.2-1.76c0-1.18.39-1.76.2-2a3.24 3.24 0 00-1.18-.58c-.39-.2-.58-.2-.78-.59a5.54 5.54 0 01-1.17-2.74 7.1 7.1 0 01.78-2.74c.19-.78 1.17-1.17 1.76-1.56S24.39 10 25 10a7.08 7.08 0 013.53 1.37 3.7 3.7 0 011.36 2.15h1.76a11.73 11.73 0 013.13 1l3.12 13.1a8.07 8.07 0 00-6.07 0c-.59.19-.59 1-.39 1.56z" fill="#fff"/><path d="M26.36 15.49a14.56 14.56 0 011.56-1.18c.19 0 .19-.19.19-.38-.38-1.38-.78-1.38-1.56-1.77a2.16 2.16 0 00-1.37-.39c-.78.2-2.15.59-2.54 1.76a2.28 2.28 0 00.4 1.76 6.92 6.92 0 001.56 1.76c.58 0 .77-1 1.75-1.56zM30.46 31.33a2.51 2.51 0 00-1.17-.19 7.06 7.06 0 00-1.37.19 7.77 7.77 0 00.39 1.18 6.44 6.44 0 001.18-.59 6.73 6.73 0 001-.59zM32 20.77c0-.39-.39-.79-1-1h-2.49a12.6 12.6 0 00-2.74.2 8.87 8.87 0 001.76 2 2 2 0 001.57.78c.78-.19.78 0 1.17-.19 0 .39.19 1 0 1.36 0 .2.19 1.76-.59 2A3.54 3.54 0 0027.92 27c-.39.58-.59 1.57 0 2 .39.2.78-.39 1.37-.59s.59-.59.79-1.17c.38-.39 1.17-.59 1.36-1v-.59c.2-1.76.2-2.15.4-3.32 0-.19.18-1.36.18-1.56zM33.2 16.07c0-.38-.78-.19-1.17 0a4 4 0 00-1.57.78c-.58.59-1 .79-1 1.38h1c1 0 1.18.39 1.57-.2.58-.78 1.16-1.18 1.16-2zM41.42 14.31a6.64 6.64 0 013.33 2.35 1.47 1.47 0 001.37-1c.19-1 .39-2.54-.2-3.33a2.32 2.32 0 00-1.56-.78 2.21 2.21 0 00-2.16.58c-.39.59-1 1.37-.78 2.15zM37.31 16.85c.39 0 .39.79.39 1.18 1 0 2 .2 2.35-.19 2.15-1-1.17-1.77-1.57-1.77-1-.19-2.93-.78-2.15 0 0 .4.59.4 1 .78zM41.42 31.33a4 4 0 00-2.35-.39c-.19.2-.19.2-.19.79 1 0 1.56.58 2.35.78 0 0 .19-1 .19-1.18zM42.59 27.81c.79 0-1-.79-1.76-1.37a.7.7 0 01-.39-.2c-.39-.39-.59-1.17-1.37-1.37a.18.18 0 01-.19-.18c0-.58-.2-2.92-.2-2.92a1.56 1.56 0 001.57.78 1.9 1.9 0 001.75-.8c0-.2.2-.59.39-.59a2 2 0 001-.79c.2 0 .39-.39.39-.39-1.76-.2-5.48-.2-5.48-.2-.59.2-1.17.79-1.17 1 0 0 .39 2.15.39 2.35 0 1.37.19 1.37.19 2.74a6.45 6.45 0 011.19.78c.19.39.38.78.58 1.17a9.54 9.54 0 012.35 1.37 2.37 2.37 0 00.77-1.37z" fill="#ff6200"/><path d="M44 44.83c-.39-.39.39-1.76-.59-1.76-.4-.19-1.56-.59-1.56-.59a4.46 4.46 0 000 2.35 5.75 5.75 0 001 2.12 9.4 9.4 0 001.4-.95 4.27 4.27 0 01-.25-1.16zM27.91 43.66a7.3 7.3 0 00-.39-1.37 2.58 2.58 0 00-1-1.17c-.2 0-.59-.39-.79-.2a7 7 0 01-.39 1.76 7.83 7.83 0 011 1.57 8.54 8.54 0 00.78 2c.19-.78.77-1.17.77-2.54zM40.37 47.8c-.11-.5-.24-1-.33-1.4v-3.13c-.78.19-1 .39-1.16.39-.6.39-1 .58-1 1 0 .78.19 1.56.19 2 0 .59 0 1 .19 1.18L39 48a10.78 10.78 0 001.39-.18zM46.7 41.7a1.53 1.53 0 00-1-.19 1.16 1.16 0 00-.78-.2 13.36 13.36 0 00.58 2 2 2 0 00.67.74 9.86 9.86 0 00.86-1.43 2.38 2.38 0 01-.35-.88z" fill="#fff"/></svg>
