<svg viewBox="0 0 48 48" xmlns="http://www.w3.org/2000/svg"><defs><linearGradient x1="20.197%" y1="18.678%" x2="68.035%" y2="76.811%" id="a"><stop stop-color="#090" offset="0%"/><stop stop-color="#009903" offset="15%"/><stop stop-color="#009A0E" offset="28%"/><stop stop-color="#009B1F" offset="40%"/><stop stop-color="#009D38" offset="52%"/><stop stop-color="#009F58" offset="63%"/><stop stop-color="#00A17E" offset="74%"/><stop stop-color="#00A5AD" offset="84%"/><stop stop-color="#00A8E1" offset="95%"/><stop stop-color="#0AF" offset="100%"/></linearGradient></defs><g fill-rule="nonzero" fill="none"><path d="M42.26 19.691c-2.09-3-5.93-4.15-9.43-4.21-.17 0-.25-.08-.26-.25-.22-3.33-2.35-6.12-4.64-8.38-4.38-4-10.38-7.7-16.5-6.68-7.39 1.87-8.14 11.73-7 18a15 15 0 00.93 2.87c.13.29 0 .42-.19.56a13.55 13.55 0 00-3.41 2.76c-4.62 5 .81 11.12 5.3 13.83a28.09 28.09 0 0015.92 4.1.54.54 0 01.46.23 15 15 0 001.88 2.25c2.44 2.33 6.7 4.59 9.68 2 2.98-2.59 3.2-6.84 4.55-10.28 1.36-5.4 6.35-11.37 2.71-16.8z" fill="url(#a)" transform="translate(2.24 .069)"/><path d="M16.65 24.93a.44.44 0 010-.64c.65-.77 1.27-1.55 1.9-2.33.06-.07.17-.13.11-.24-.06-.11-.15 0-.24 0h-1.56a.65.65 0 00-.57.29c-.62.83-1.26 1.66-1.89 2.48a.34.34 0 000 .46c.63.94 1.27 1.87 1.87 2.82a1 1 0 001.06.55c.16-.01.32-.01.48 0h.89c.08 0 .19 0 .23-.07.04-.07-.05-.13-.1-.19-.73-1.06-1.45-2.12-2.18-3.13zM13.8 19.05h-1.28c-.42 0-.43.09-.42.41V27.9c0 .26.08.37.35.36h1.34c.24 0 .35-.07.35-.33V19.4c0-.25-.14-.35-.34-.35zM26.76 22.7a3.27 3.27 0 00-2.57-1.27 8.44 8.44 0 00-3.27.44.49.49 0 00-.39.53v8.18c0 .24.09.3.3.29h1.37c.28 0 .39-.09.38-.37v-1.86c0-.21.06-.3.3-.29.52.035 1.04.035 1.56 0a2.86 2.86 0 002.3-1.25 3.93 3.93 0 00.57-2.78 3.36 3.36 0 00-.55-1.62zm-1.5 2.57c-.19 1.61-1.12 1.82-2.38 1.63a.32.32 0 01-.3-.35v-3.16a.36.36 0 01.22-.39 1.88 1.88 0 012 .34 2.36 2.36 0 01.48 1.66s-.01.16-.02.27zM35.89 26v-1.85a2.42 2.42 0 00-2-2.6 8.07 8.07 0 00-4.27.33.35.35 0 00-.28.38c0 1.9 0 3.81-.05 5.72 0 .23.1.32.33.32H31c.26 0 .37-.11.36-.37v-1.5c0-1 0-1.92-.05-2.87a.47.47 0 01.42-.54 3.91 3.91 0 01.76-.07c.492-.06.97.196 1.19.64.123.274.188.57.19.87v3.48c0 .26.08.37.35.36h1.34c.29 0 .36-.11.36-.38V26h-.03z" fill="#FFF"/></g></svg>
