<svg xmlns="http://www.w3.org/2000/svg" xmlns:xlink="http://www.w3.org/1999/xlink" xml:space="preserve" id="Layer_1" x="0" y="0" style="enable-background:new 0 0 122.6 122.6" version="1.1" viewBox="0 0 122.6 122.6"><style>.st0,.st1{clip-path:url(#SVGID_00000132786312789100468600000011059235050425940612_);fill:#ed1c66}.st1{fill:#fff}</style><defs><path id="SVGID_1_" d="M0 0h122.6v122.6H0z"/></defs><clipPath id="SVGID_00000029024592988766799470000009528418962707741115_"><use xlink:href="#SVGID_1_" style="overflow:visible"/></clipPath><path d="M97.6 122.6H25c-13.8 0-25-11.2-25-25V25C0 11.2 11.2 0 25 0h72.5c13.8 0 25 11.2 25 25v72.5c.1 13.9-11.1 25.1-24.9 25.1" style="clip-path:url(#SVGID_00000029024592988766799470000009528418962707741115_);fill:#ed1c66"/><path d="M38.6 67C26 67 15.7 56.7 15.7 44.1S26 21.3 38.6 21.3c12.6 0 22.9 10.3 22.9 22.9S51.2 67 38.6 67m0-38.2c-8.4 0-15.3 6.9-15.3 15.3s6.9 15.3 15.3 15.3 15.3-6.9 15.3-15.3S47 28.8 38.6 28.8M85.3 67c-1.5 0-2.8-.9-3.4-2.2L64.1 26.7c-.9-1.9-.1-4.2 1.8-5.1 1.9-.9 4.2-.1 5.1 1.8l14.3 30.7 14.3-30.7c.9-1.9 3.2-2.7 5.1-1.8 1.9.9 2.7 3.2 1.8 5.1L88.8 64.8c-.7 1.4-2 2.2-3.5 2.2M36.2 88.6c0 3.4-2.6 6.1-5.9 6.1-3.3 0-5.9-2.7-5.9-6.1 0-3.4 2.6-6.1 5.9-6.1 3.3 0 5.9 2.7 5.9 6.1M30.9 78c-2.5 0-4.8 1-6.5 2.7v-1.2c0-.2 0-.4-.1-.5-.1-.1-.2-.3-.4-.3-.1-.1-.3-.1-.5-.2h-2.7c-.2 0-.3.1-.5.2-.1.1-.3.2-.4.3-.1.1-.1.3-.1.5V104.4c0 .2 0 .4.1.5.1.1.2.3.4.3.1.1.3.1.5.2h2.7c.2 0 .3-.1.5-.2.1-.1.3-.2.4-.3.1-.1.1-.3.1-.5v-7.8c1.7 1.7 4 2.7 6.5 2.7 5.4 0 9.8-4.7 9.8-10.6 0-5.9-4.4-10.7-9.8-10.7M53.4 82.5c3.3 0 5.9 2.7 5.9 6.1s-2.6 6.1-5.9 6.1c-3.3 0-5.9-2.7-5.9-6.1s2.6-6.1 5.9-6.1M43 88.6c0 5.8 4.4 10.6 9.8 10.6 2.5 0 4.8-1 6.5-2.7v1.3c0 .2 0 .4.1.5.1.1.2.3.4.3.1.1.3.1.5.2H63c.2 0 .3-.1.5-.2.1-.1.3-.2.4-.3.1-.1.1-.3.1-.5V79.4c0-.2 0-.4-.1-.5-.1-.1-.2-.3-.4-.3-.1-.1-.3-.1-.5-.2h-2.7c-.2 0-.3.1-.5.2-.1.1-.3.2-.4.3-.1.1-.1.3-.1.5v1.2c-1.7-1.7-4-2.7-6.5-2.7-5.4.1-9.8 4.9-9.8 10.7M84.5 79.9c0-.9-.7-1.5-1.5-1.6h-2c-.3 0-.5.1-.7.2-.2.1-.3.3-.4.6l-4.6 12.5c-.1-.3-4.1-11.1-4.3-11.7l-.3-.7c0-.1-.1-.2-.1-.2-.1-.1-.2-.3-.4-.3-.1-.1-.3-.1-.5-.2H66.8c-.2 0-.3.1-.5.2-.1.1-.3.2-.4.3-.1.1-.1.3-.1.5v.2L73 97l-2.8 7.1s-.1.1-.1.3v.3c0 .2.1.3.2.5.1.1.4.2.7.2h3c.3 0 .5-.1.7-.2.2-.1.3-.3.4-.6l9.3-24.1c.1-.2.1-.4.1-.6M94.1 78.2c-.6-.6-1.6-.6-2.2 0-.6.6-.6 1.6 0 2.2 3.5 3.5 3.5 9.1 0 12.6-.6.6-.6 1.6 0 2.2.6.6 1.6.6 2.2 0 4.7-4.7 4.7-12.4 0-17" style="clip-path:url(#SVGID_00000029024592988766799470000009528418962707741115_);fill:#fff"/><path d="M100.7 71.6c-.6-.6-1.6-.6-2.2 0-.6.6-.6 1.6 0 2.2 7.1 7.1 7.1 18.7 0 25.8-.6.6-.6 1.6 0 2.2.6.6 1.6.6 2.2 0 8.3-8.4 8.3-21.9 0-30.2" style="clip-path:url(#SVGID_00000029024592988766799470000009528418962707741115_);fill:#fff"/></svg>