<svg viewBox="0 0 48 48" xmlns="http://www.w3.org/2000/svg"><g fill="#F7931E" fill-rule="nonzero"><path d="M21.16 2.19C23.22.87 25 .81 26.89 2.31l-2.34 44.16a36.18 36.18 0 00-4.16.11.76.76 0 01-.94-.82c-.14-2.38-.29-4.77-.47-7.12-.02-.49.229-.95.65-1.2a4.53 4.53 0 002-3.88c0-4.71 0-9.41.38-14.11.24-1.46-1.62-1.67-1.5-.12-.15 3-.29 6-.41 9 0 .94 0 2-1.32 2s-1.27-1.14-1.24-2.05c.09-2.68.24-5.33.33-8 0-.29 0-.59.05-.88 0-.53-.11-1.06-.7-1.09-.59-.03-.77.44-.79 1-.12 2.53-.27 5-.42 7.55-.17 1.22.56 3.43-1.26 3.5a1.23 1.23 0 01-1.32-1.41c.1-3.15.15-6.32.38-9.46.06-.59-.09-1.18-.77-1.18l8.12-16.12z"/><path d="M13.78 19.48c.06-.59-.09-1.18-.77-1.18s-.7.53-.76 1.06C12 22 12.13 24.68 12 27.94c.23 2.64-1.05 7.61 2 9.53a2.13 2.13 0 011 1.91c.09 2 .21 4.08.42 6.11.08.88-.09 1.24-1 1.21-1.77 0-3.5 0-5.27.09a1.69 1.69 0 01-2-1.71A120.24 120.24 0 016 27.8c.26-2.8-2.56-1.8-4.3-2.3C0 25.24-.45 24.36.49 22.89A68.8 68.8 0 018 13.21a70.83 70.83 0 0113.17-11l-7.39 17.27z"/><path d="M21.16 2.19C23.22.87 25 .81 26.89 2.31c3.26 2.53 5.23 4.14 5.76 3.76.09-.06.06-.15.15-.85.15-1.29.2-1.94.53-2.29.33-.35.64-.39 2.09-.3 2.41.15 3.49.18 4 .71.51.53.71 1.61 1 3.82.12 1 .24 2.09.53 5a6.91 6.91 0 001.62 4.08 57.64 57.64 0 014.85 6.59c1 1.56.59 2.47-1.21 2.73-1.6.5-4.41-.49-4.23 2.06.038 4.95-.216 9.9-.76 14.82-.59 4.93-.3 4.49-4.94 4.29-1.94-.09-1.91-.06-1.74-2 .79-8.8 1.3-17.64.44-26.49-.06-.7-.14-1.38-1-1.59a1.6 1.6 0 00-1.73.8 27.4 27.4 0 00-4.94 10.46 31.77 31.77 0 00-.82 8.38c0 1.44.61 2.18 2.06 2.21.44 0 .88.11 1.29.14.79 0 1.12.39 1 1.21-.21 1.88-.36 3.76-.47 5.67-.06.91-.47 1.15-1.3 1.12-1.53 0-3.06-.11-4.6-.14L21.16 2.19z"/></g></svg>
