<svg viewBox="0 0 48 48" xmlns="http://www.w3.org/2000/svg"><path d="M11.19 35c.73 1.67 2 2.35 4.22 2.35h21.7a5.92 5.92 0 00-5-5.71H19.47L34 17.77a4.34 4.34 0 001-4.7c-.79-1.72-2.11-2.45-4.41-2.45H12.51c.07 2.4 1.27 5.26 4.45 5.78h10.33L12 30.74a4.09 4.09 0 00-.81 4.26z" fill="#f48c00"/><path d="M42.28 15.84V37.2a5.09 5.09 0 01-5.08 5.08H10.8a5.09 5.09 0 01-5.08-5.08V10.8a5.09 5.09 0 015.08-5.09h26.4a5.19 5.19 0 012 .4 5.83 5.83 0 012 1.53 2.88 2.88 0 004 0c3.48-4.06-4.56-7.9-8-7.64H10.8A10.79 10.79 0 000 10.8v26.4A10.84 10.84 0 0010.8 48h26.4c.36 0 .72 0 1.08-.06A10.83 10.83 0 0048 37.2V10.62c-3 .01-5.72 2.52-5.72 5.22z" fill="#f48c00"/></svg>
